<?xml version="1.0" encoding="utf-8"?>
<!-- Generator: Adobe Illustrator 21.1.0, SVG Export Plug-In . SVG Version: 6.00 Build 0)  -->
<svg version="1.1" id="Слой_1" xmlns="http://www.w3.org/2000/svg" xmlns:xlink="http://www.w3.org/1999/xlink" x="0px" y="0px"
	 viewBox="0 0 276 291" style="enable-background:new 0 0 276 291;" xml:space="preserve"
	 fill="#f5f3f4"
	 >

<g>
	<path d="M262,210c-5,13.6-8.6,16-23.2,16c-26.7,0-53.3,0-80,0c-1.8,0-3.6,0-5.6,0c-0.2-4.4-0.4-8.4-0.6-13.2c1.8,0,3.5,0,5.2,0
		c27.7,0,55.3,0,83,0c6.7,0,7.5-0.9,7.5-7.5c0-50.2,0-100.3,0-150.5c0-6.5-0.8-7.3-7.1-7.3c-8.5,0-16.9,0-25.9,0
		c0,4.6,0.1,8.6,0,12.5c-0.2,4.6-2.6,7.2-6.6,7.1c-3.9-0.1-6.4-2.7-6.5-7.3c-0.1-3.9,0-7.9,0-12.3c-12.7,0-24.8-0.1-37,0.1
		c-0.9,0-2.5,1.9-2.6,3c-0.4,3.1-0.1,6.3-0.2,9.5c-0.1,4.1-2,6.7-6.3,6.9c-3.9,0.2-6.6-2.4-6.8-6.9c-0.2-4,0-7.9,0-12.3
		c-13.2,0-25.9,0-39.6,0c0,3.6,0.1,7.4,0,11.1c-0.1,5.4-2.4,8.2-6.7,8.1c-4.2,0-6.5-2.8-6.6-8.2c-0.1-3.5,0-7,0-11.4
		c-6.8,0-13.4,0-20,0c-13.4,0-13.1-1.1-13.1,13c0.1,28.5,0,57,0,85.5c0,1.8,0,3.6,0,5.6c-4.3,1.5-8.3,2.9-12.9,4.4
		c-0.1-1.8-0.3-3.4-0.3-5c0-32.2,0-64.3,0-96.5c0-13.4,6.9-20.4,20.2-20.4c8.5,0,16.9,0,26,0c0-3.6,0.2-6.7,0-9.8
		C95.8,19.5,97.4,16,102,14c0.7,0,1.3,0,2,0c4.2,2,5.9,5.3,5.6,10c-0.2,3.2,0,6.5,0,9.9c13.5,0,26.3,0,39.6,0c0-3.4,0.2-6.6,0-9.6
		c-0.4-4.9,1.3-8.3,5.9-10.2c0.7,0,1.3,0,2,0c4.3,2,5.8,5.4,5.4,10.1c-0.3,3.2-0.1,6.5-0.1,9.8c13.6,0,26.5,0,39.7,0
		c0-3.4,0.2-6.6-0.1-9.7c-0.4-4.9,1.3-8.4,6-10.2c0.3,0,0.7,0,1,0c4.9,1.5,6.7,4.8,6.3,9.8c-0.3,3.3-0.1,6.5-0.1,10.4
		c8.2,0,15.7,0,23.3,0c14.4,0,18.5,2.7,23.4,15.8C262,103.3,262,156.7,262,210z"/>
	<path d="M15,215c0.8-3.2,1.5-6.4,2.4-9.6c8.6-30.4,38.7-50.9,69.2-47.1c33,4.1,57.7,30.6,58.4,62.6c0.7,33-22,60.7-54.2,66.2
		c-0.9,0.2-1.8,0.6-2.8,0.9c-5.3,0-10.7,0-16,0c-0.9-0.3-1.8-0.7-2.8-0.9c-26.5-5.3-43.7-20.9-51.8-46.5c-1-3.1-1.6-6.4-2.4-9.5
		C15,225.7,15,220.3,15,215z M80,171c-28.6,0-51.9,23.2-52,51.7C27.9,251.5,51.2,275,80,275c28.6,0,51.9-23.2,52-51.7
		C132.1,194.5,108.8,171,80,171z"/>
	<path d="M96.5,146.3c0-6.4,0-12.4,0-18.9c8.6,0,17.1,0,26,0c0,6,0,12.3,0,18.9C114.1,146.3,105.6,146.3,96.5,146.3z"/>
	<path d="M96.5,94.1c8.9,0,17.3,0,26.1,0c0,6.4,0,12.7,0,19.2c-8.7,0-17.3,0-26.1,0C96.5,106.9,96.5,100.8,96.5,94.1z"/>
	<path d="M168.7,113.4c-8.6,0-17,0-25.7,0c0-6.5,0-12.7,0-19.2c8.6,0,17,0,25.7,0C168.7,100.4,168.7,106.6,168.7,113.4z"/>
	<path d="M189.2,94c8.8,0,17,0,25.7,0c0,6.4,0,12.6,0,19.2c-8.5,0-16.9,0-25.7,0C189.2,106.9,189.2,100.7,189.2,94z"/>
	<path d="M142.9,146.4c0-6.5,0-12.6,0-19.1c8.6,0,17.1,0,25.9,0c0,6.3,0,12.5,0,19.1C160.3,146.4,151.9,146.4,142.9,146.4z"/>
	<path d="M189.1,146.4c0-6.6,0-12.7,0-19.2c8.7,0,17.2,0,25.9,0c0,6.4,0,12.6,0,19.2C206.3,146.4,198,146.4,189.1,146.4z"/>
	<path d="M168.8,160.3c0,6.4,0,12.6,0,19.2c-8.6,0-17,0-25.7,0c0-6.4,0-12.6,0-19.2C151.5,160.3,160,160.3,168.8,160.3z"/>
	<path d="M189.4,160.2c8.7,0,16.9,0,25.6,0c0,6.4,0,12.6,0,19.3c-8.4,0-16.8,0-25.6,0C189.4,173.2,189.4,166.9,189.4,160.2z"/>
	<path d="M76.4,190.8c2.4,0,4.8,0,7.6,0c-0.9,5.4,1.6,7.2,6.3,8.2c5.7,1.2,5.8,2.6,2,10c-3.7-0.7-7.4-1.8-11.1-1.8
		c-2,0-4.1,2-6.1,3.1c1.3,1.9,2.2,4.4,3.9,5.6c2.8,1.9,6.3,2.9,9.4,4.5c5.6,2.9,8.8,7.6,8.6,14c-0.2,6.5-3.8,10.9-9.7,13.2
		c-2.7,1-3.7,2.4-3.4,5.1c0.3,3.1-0.8,4.5-4.2,4.4c-3-0.1-4.9-0.7-4.5-4.2c0.3-2.7-0.9-4.1-3.6-4.1c-0.3,0-0.7-0.1-1-0.2
		c-8.6-2-9.2-3.2-5.2-11.9c1.1,0.3,2.3,0.8,3.5,1.1c3.2,0.7,6.5,2.1,9.7,1.8c2.3-0.2,5.3-2.3,6.2-4.3c0.5-1.3-1.9-4.6-3.8-5.9
		c-2.8-2-6.3-2.9-9.4-4.5c-5-2.6-8.5-6.5-8.4-12.5c0.1-6.3,3.1-11.1,9.1-13C77.1,198,75.3,194,76.4,190.8z"/>
</g>
</svg>
